<?xml version="1.0" encoding="UTF-8" standalone="no"?>
<!DOCTYPE svg PUBLIC "-//W3C//DTD SVG 1.1//EN"
 "http://www.w3.org/Graphics/SVG/1.1/DTD/svg11.dtd">
<!-- Generated by graphviz version 2.38.0 (20140413.2041)
 -->
<!-- Title: G Pages: 1 -->
<svg width="469pt" height="286pt"
 viewBox="0.00 0.00 469.28 286.00" xmlns="http://www.w3.org/2000/svg" xmlns:xlink="http://www.w3.org/1999/xlink">
<g id="graph0" class="graph" transform="scale(1 1) rotate(0) translate(4 282)">
<title>G</title>
<polygon fill="white" stroke="none" points="-4,4 -4,-282 465.277,-282 465.277,4 -4,4"/>
<g id="clust1" class="cluster"><title>cluster_Global</title>
<path fill="none" stroke="gray" d="M329.277,-8C329.277,-8 441.277,-8 441.277,-8 447.277,-8 453.277,-14 453.277,-20 453.277,-20 453.277,-258 453.277,-258 453.277,-264 447.277,-270 441.277,-270 441.277,-270 329.277,-270 329.277,-270 323.277,-270 317.277,-264 317.277,-258 317.277,-258 317.277,-20 317.277,-20 317.277,-14 323.277,-8 329.277,-8"/>
<text text-anchor="middle" x="385.277" y="-257.2" font-family="Times New Roman,serif" font-size="11.00" fill="gray">Global</text>
</g>
<g id="clust2" class="cluster"><title>cluster_\TripSorterApp</title>
<path fill="none" stroke="gray" d="M337.277,-62C337.277,-62 433.277,-62 433.277,-62 439.277,-62 445.277,-68 445.277,-74 445.277,-74 445.277,-230 445.277,-230 445.277,-236 439.277,-242 433.277,-242 433.277,-242 337.277,-242 337.277,-242 331.277,-242 325.277,-236 325.277,-230 325.277,-230 325.277,-74 325.277,-74 325.277,-68 331.277,-62 337.277,-62"/>
<text text-anchor="middle" x="385.277" y="-229.2" font-family="Times New Roman,serif" font-size="11.00" fill="gray">TripSorterApp</text>
</g>
<!-- \\TripSorterApp\\BoardingCards -->
<g id="node1" class="node"><title>\\TripSorterApp\\BoardingCards</title>
<polygon fill="none" stroke="black" points="437.277,-214 333.277,-214 333.277,-178 437.277,-178 437.277,-214"/>
<text text-anchor="middle" x="385.277" y="-193.2" font-family="Courier,monospace" font-size="11.00">BoardingCards</text>
</g>
<!-- \\TripSorterApp\\Drawer -->
<g id="node2" class="node"><title>\\TripSorterApp\\Drawer</title>
<polygon fill="none" stroke="black" points="413.777,-160 356.777,-160 356.777,-124 413.777,-124 413.777,-160"/>
<text text-anchor="middle" x="385.277" y="-139.2" font-family="Courier,monospace" font-size="11.00">Drawer</text>
</g>
<!-- \\TripSorterApp\\TripSorter -->
<g id="node3" class="node"><title>\\TripSorterApp\\TripSorter</title>
<polygon fill="none" stroke="black" points="427.277,-106 343.277,-106 343.277,-70 427.277,-70 427.277,-106"/>
<text text-anchor="middle" x="385.277" y="-85.2" font-family="Courier,monospace" font-size="11.00">TripSorter</text>
</g>
<!-- \\simpleTest -->
<g id="node4" class="node"><title>\\simpleTest</title>
<polygon fill="none" stroke="black" points="427.277,-52 343.277,-52 343.277,-16 427.277,-16 427.277,-52"/>
<text text-anchor="middle" x="385.277" y="-31.2" font-family="Courier,monospace" font-size="11.00">simpleTest</text>
</g>
<!-- \\PHPUnit_Framework_TestCase -->
<g id="node5" class="node"><title>\\PHPUnit_Framework_TestCase</title>
<ellipse fill="none" stroke="black" cx="130.638" cy="-34" rx="130.777" ry="18"/>
<text text-anchor="middle" x="130.638" y="-30.3" font-family="Times New Roman,serif" font-size="14.00" fill="gray">\PHPUnit_Framework_TestCase</text>
</g>
<!-- \\simpleTest&#45;&gt;\\PHPUnit_Framework_TestCase -->
<g id="edge1" class="edge"><title>\\simpleTest&#45;&gt;\\PHPUnit_Framework_TestCase</title>
<path fill="none" stroke="black" d="M343.124,-34C323.101,-34 297.734,-34 271.579,-34"/>
<polygon fill="none" stroke="black" points="271.526,-30.5001 261.526,-34 271.526,-37.5001 271.526,-30.5001"/>
</g>
</g>
</svg>
